<?xml version="1.0" encoding="iso-8859-1"?>
<!-- Generator: Adobe Illustrator 18.0.0, SVG Export Plug-In . SVG Version: 6.00 Build 0)  -->
<!DOCTYPE svg PUBLIC "-//W3C//DTD SVG 1.1//EN" "http://www.w3.org/Graphics/SVG/1.1/DTD/svg11.dtd">
<svg version="1.1" id="Capa_1" xmlns="http://www.w3.org/2000/svg" xmlns:xlink="http://www.w3.org/1999/xlink" x="0px" y="0px"
	 viewBox="0 0 295.667 295.667" style="enable-background:new 0 0 295.667 295.667;" xml:space="preserve">
<g>
	<path d="M280.667,8.608H77.373c-8.284,0-15,6.716-15,15v130.549l38.632-9.336c9.317-2.25,19.353-1.527,28.579,2.504l46.192,20.177
		c13.667,5.97,22.874,17.957,25.895,31.508h78.995c8.284,0,15-6.716,15-15V23.608C295.667,15.324,288.951,8.608,280.667,8.608z"/>
	<path d="M258.139,241.631c-2.132-8.347-10.762-13.139-18.916-10.654L165.385,253.5c-3.24,0.988-6.746,0.459-9.546-1.446
		c-11.673-7.942-40.314-27.43-51.237-34.862c-1.477-1.005-1.292-3.231,0.326-3.987l8.883-4.153c2.083-0.974,4.485-1.003,6.594-0.087
		c10.382,4.507,20.751,8.892,31.002,13.367c7.384,3.223,16.215,0.304,19.791-6.916c3.83-7.733,0.388-17.007-7.429-20.422
		c-21.508-9.395-32.715-14.29-46.191-20.177c-2.93-1.28-6.272-1.62-9.527-0.834c-7.033,1.699-54.178,13.092-60.335,14.58H15
		c-7.767,0-14.518,6.002-14.959,14.185L0,236.051v0c0,8.284,6.716,15,15,15h25.81c2.924,0,5.815,0.532,8.546,1.576
		c18.222,6.962,71.215,27.209,79.003,30.184c14.324,5.472,25.838,4.33,29.391,3.697c5.745-1.023,24.572-6.785,89.798-26.706
		C255.281,257.441,260.139,249.466,258.139,241.631z"/>
</g>
<g>
</g>
<g>
</g>
<g>
</g>
<g>
</g>
<g>
</g>
<g>
</g>
<g>
</g>
<g>
</g>
<g>
</g>
<g>
</g>
<g>
</g>
<g>
</g>
<g>
</g>
<g>
</g>
<g>
</g>
</svg>
