<?xml version="1.0" encoding="iso-8859-1"?>
<!-- Generator: Adobe Illustrator 19.0.0, SVG Export Plug-In . SVG Version: 6.00 Build 0)  -->
<svg version="1.1" id="Capa_1" xmlns="http://www.w3.org/2000/svg" xmlns:xlink="http://www.w3.org/1999/xlink" x="0px" y="0px"
	 viewBox="0 0 512 512" style="enable-background:new 0 0 512 512;" xml:space="preserve">
<g>
	<g>
		<path d="M256,0c-35.296,0-64,28.704-64,64v16c0,8.832,7.168,16,16,16h96c8.832,0,16-7.168,16-16V64C320,28.704,291.296,0,256,0z"
			/>
	</g>
</g>
<g>
	<g>
		<path d="M416,64h-64v16c0,26.464-21.536,48-48,48h-96c-26.464,0-48-21.536-48-48V64H96c-17.632,0-32,14.368-32,32v384
			c0,17.664,14.368,32,32,32h320c17.664,0,32-14.336,32-32V96C448,78.368,433.664,64,416,64z M336,448H176c-8.832,0-16-7.168-16-16
			c0-8.832,7.168-16,16-16h160c8.832,0,16,7.168,16,16C352,440.832,344.832,448,336,448z M336,384H176c-8.832,0-16-7.168-16-16
			c0-44.128,35.904-80,80-80h16c-35.296,0-64-28.704-64-64c0-35.296,28.704-64,64-64s64,28.704,64,64s-28.704,64-64,64h16
			c44.128,0,80,35.872,80,80C352,376.832,344.832,384,336,384z"/>
	</g>
</g>
<g>
</g>
<g>
</g>
<g>
</g>
<g>
</g>
<g>
</g>
<g>
</g>
<g>
</g>
<g>
</g>
<g>
</g>
<g>
</g>
<g>
</g>
<g>
</g>
<g>
</g>
<g>
</g>
<g>
</g>
</svg>
