<?xml version="1.0" encoding="iso-8859-1"?>
<!-- Generator: Adobe Illustrator 19.0.0, SVG Export Plug-In . SVG Version: 6.00 Build 0)  -->
<svg version="1.1" id="Capa_1" xmlns="http://www.w3.org/2000/svg" xmlns:xlink="http://www.w3.org/1999/xlink" x="0px" y="0px"
	 viewBox="0 0 512 512" style="enable-background:new 0 0 512 512;" xml:space="preserve">
<g>
	<g>
		<path d="M336.993,82.137H215.039c-0.809,0-1.622,0.006-2.438,0.018c-17.446-26.913-47.172-43.266-79.708-43.266h-15v72.681
			c-29.058,19.425-51.669,47.093-64.859,79.322H0v132.504h53.034c18.782,45.96,56.22,81.793,102.898,98.518v51.198h100.056v-40.962
			h40.056v40.961H396.1V421.9c31.444-11.325,59.53-31.803,79.957-58.499C499.571,332.673,512,295.929,512,257.143
			C512,160.645,433.492,82.137,336.993,82.137z M147.904,220.891H117.88v-30h30.024V220.891z M326.056,172.184h-100.08v-30h100.08
			V172.184z"/>
	</g>
</g>
<g>
</g>
<g>
</g>
<g>
</g>
<g>
</g>
<g>
</g>
<g>
</g>
<g>
</g>
<g>
</g>
<g>
</g>
<g>
</g>
<g>
</g>
<g>
</g>
<g>
</g>
<g>
</g>
<g>
</g>
</svg>
