<?xml version="1.0" encoding="iso-8859-1"?>
<!-- Generator: Adobe Illustrator 19.0.0, SVG Export Plug-In . SVG Version: 6.00 Build 0)  -->
<svg version="1.1" id="Capa_1" xmlns="http://www.w3.org/2000/svg" xmlns:xlink="http://www.w3.org/1999/xlink" x="0px" y="0px"
	 viewBox="0 0 512 512" style="enable-background:new 0 0 512 512;" xml:space="preserve">
<g>
	<g>
		<path d="M383.401,395.712l-78.336-282.048l45.248-90.496c2.464-4.96,2.208-10.848-0.672-15.552C346.697,2.88,341.545,0,336.009,0
			h-160c-5.536,0-10.688,2.88-13.6,7.616c-2.912,4.704-3.2,10.624-0.704,15.552l45.248,90.464l-78.368,282.08
			c-1.664,5.984,0.288,12.384,5.024,16.448l112,96c2.976,2.56,6.688,3.84,10.4,3.84c3.712,0,7.424-1.28,10.4-3.84l112-96
			C383.113,408.096,385.097,401.696,383.401,395.712z"/>
	</g>
</g>
<g>
</g>
<g>
</g>
<g>
</g>
<g>
</g>
<g>
</g>
<g>
</g>
<g>
</g>
<g>
</g>
<g>
</g>
<g>
</g>
<g>
</g>
<g>
</g>
<g>
</g>
<g>
</g>
<g>
</g>
</svg>
